<svg width="166" height="178" viewBox="0 0 166 178" fill="none" xmlns="http://www.w3.org/2000/svg">
<path d="M12 77C5.37258 77 0 82.3726 0 89C0 95.6274 5.37258 101 12 101L12 89L12 77ZM162.485 97.4853C167.172 92.799 167.172 85.201 162.485 80.5147L86.1178 4.14719C81.4315 -0.539108 73.8335 -0.539108 69.1472 4.14719C64.4609 8.83348 64.4609 16.4315 69.1472 21.1178L137.029 89L69.1472 156.882C64.4609 161.569 64.4609 169.167 69.1472 173.853C73.8335 178.539 81.4315 178.539 86.1178 173.853L162.485 97.4853ZM12 89L12 101L154 101V89V77L12 77L12 89Z" fill="#B1113A"/>
</svg>
