<svg width="386" height="188" viewBox="0 0 386 188" fill="none" xmlns="http://www.w3.org/2000/svg">
<path d="M34.216 164C33.416 164 33.016 163.6 33.016 162.8V149.264C33.016 148.88 33.032 148.576 33.064 148.352C33.128 148.096 33.32 147.872 33.64 147.68L43.816 141.824V139.424L33.784 134.144C33.272 133.856 33.016 133.376 33.016 132.704V111.104C33.016 110.592 33.048 110.224 33.112 110C33.176 109.744 33.4 109.472 33.784 109.184L46.456 100.64C46.712 100.448 46.984 100.304 47.272 100.208C47.56 100.08 47.928 100.016 48.376 100.016H65.32C66.12 100.016 66.52 100.416 66.52 101.216V115.424C66.52 116.128 66.28 116.608 65.8 116.864L53.224 122.384V124.88L65.8 132.08C66.28 132.304 66.52 132.816 66.52 133.616V154.496C66.52 154.752 66.472 155.024 66.376 155.312C66.312 155.568 66.152 155.776 65.896 155.936L50.824 163.424C50.632 163.552 50.392 163.68 50.104 163.808C49.848 163.936 49.592 164 49.336 164H34.216ZM82.804 164C82.068 164 81.428 163.728 80.884 163.184L71.284 153.584C70.772 153.072 70.516 152.432 70.516 151.664V101.216C70.516 100.416 70.916 100.016 71.716 100.016H89.284C90.084 100.016 90.484 100.416 90.484 101.216V142.784C90.484 144.128 91.156 144.8 92.5 144.8H94.516V101.216C94.516 100.416 94.916 100.016 95.716 100.016H113.284C114.084 100.016 114.484 100.416 114.484 101.216V162.8C114.484 163.6 114.084 164 113.284 164H82.804ZM130.804 164C130.068 164 129.428 163.728 128.884 163.184L119.284 153.584C118.772 153.072 118.516 152.432 118.516 151.664V101.216C118.516 100.416 118.916 100.016 119.716 100.016H137.284C138.084 100.016 138.484 100.416 138.484 101.216V140.816H142.516V101.216C142.516 100.416 142.916 100.016 143.716 100.016H161.284C162.084 100.016 162.484 100.416 162.484 101.216V140.816H166.516V101.216C166.516 100.416 166.916 100.016 167.716 100.016H185.284C186.084 100.016 186.484 100.416 186.484 101.216V151.664C186.484 152.432 186.228 153.072 185.716 153.584L176.116 163.184C175.572 163.728 174.932 164 174.196 164H163.636C162.868 164 162.228 163.728 161.716 163.184L153.604 155.12H151.396L143.284 163.184C142.772 163.728 142.132 164 141.364 164H130.804ZM191.716 164C190.916 164 190.516 163.6 190.516 162.8V118.304C190.516 117.792 190.676 117.312 190.996 116.864L202.324 100.736C202.676 100.256 203.188 100.016 203.86 100.016H221.044C221.748 100.016 222.26 100.256 222.58 100.736L234.004 116.864C234.324 117.312 234.484 117.792 234.484 118.304V162.8C234.484 163.6 234.084 164 233.284 164H215.716C214.916 164 214.516 163.6 214.516 162.8V144.8H210.484V162.8C210.484 163.6 210.084 164 209.284 164H191.716ZM212.5 128.144C213.876 128.144 214.996 127.712 215.86 126.848C216.724 125.984 217.156 124.88 217.156 123.536C217.156 122.16 216.724 121.04 215.86 120.176C214.996 119.312 213.876 118.88 212.5 118.88C211.124 118.88 210.004 119.312 209.14 120.176C208.276 121.04 207.844 122.16 207.844 123.536C207.844 124.88 208.276 125.984 209.14 126.848C210.004 127.712 211.124 128.144 212.5 128.144ZM239.84 137.936C239.424 138.128 239.088 138.144 238.832 137.984C238.544 137.792 238.4 137.472 238.4 137.024V129.92C238.4 129.344 238.688 128.896 239.264 128.576L266 115.28C266.416 115.088 266.752 115.072 267.008 115.232C267.296 115.392 267.44 115.696 267.44 116.144V123.296C267.44 123.84 267.152 124.288 266.576 124.64L239.84 137.936ZM243.536 164C242.736 164 242.336 163.6 242.336 162.8V101.216C242.336 100.416 242.736 100.016 243.536 100.016H261.104C261.904 100.016 262.304 100.416 262.304 101.216V144.8H270.416C271.216 144.8 271.616 145.2 271.616 146V162.8C271.616 163.6 271.216 164 270.416 164H243.536ZM280.474 164C279.674 164 279.274 163.6 279.274 162.8V101.216C279.274 100.416 279.674 100.016 280.474 100.016H298.042C298.842 100.016 299.242 100.416 299.242 101.216V119.984H299.962L303.034 107.984L304.858 100.64C304.922 100.352 305.114 100.176 305.434 100.112C305.786 100.048 306.106 100.016 306.394 100.016H322.618C323.418 100.016 323.818 100.416 323.818 101.216V113.6C323.818 113.888 323.754 114.144 323.626 114.368C323.498 114.592 323.37 114.848 323.242 115.136L316.282 130.736L315.514 132.08L316.282 133.616L324.394 149.696C324.554 149.952 324.65 150.224 324.682 150.512C324.746 150.768 324.778 151.104 324.778 151.52V162.8C324.778 163.6 324.378 164 323.578 164H307.162C306.906 164 306.618 163.952 306.298 163.856C306.01 163.76 305.818 163.568 305.722 163.28L302.794 154.4L299.962 146H299.242V162.8C299.242 163.6 298.842 164 298.042 164H280.474ZM335.88 164C335.08 164 334.68 163.6 334.68 162.8V101.216C334.68 100.416 335.08 100.016 335.88 100.016H353.448C354.248 100.016 354.648 100.416 354.648 101.216V162.8C354.648 163.6 354.248 164 353.448 164H335.88Z" fill="black"/>
<path d="M50.104 96C49.272 96 48.632 95.792 48.184 95.376L42.856 90L33.784 80.976C33.432 80.624 33.208 80.352 33.112 80.16C33.048 79.936 33.016 79.568 33.016 79.056V48.96C33.016 48.416 33.048 48.048 33.112 47.856C33.208 47.664 33.432 47.392 33.784 47.04L40.984 39.744L48.184 32.64C48.472 32.352 48.76 32.176 49.048 32.112C49.336 32.048 49.688 32.016 50.104 32.016H63.544C64.344 32.016 64.744 32.416 64.744 33.216V46.464C64.744 46.752 64.712 47.024 64.648 47.28C64.616 47.504 64.472 47.744 64.216 48L57.88 54.24L52.84 59.376V69.456L58.504 75.216L64.216 80.784C64.472 81.008 64.616 81.248 64.648 81.504C64.712 81.76 64.744 82.032 64.744 82.32V94.8C64.744 95.6 64.344 96 63.544 96H50.104ZM69.9348 96C69.1348 96 68.7348 95.6 68.7348 94.8V33.216C68.7348 32.416 69.1348 32.016 69.9348 32.016H87.5028C88.3028 32.016 88.7028 32.416 88.7028 33.216V94.8C88.7028 95.6 88.3028 96 87.5028 96H69.9348ZM93.9348 96C93.1348 96 92.7348 95.6 92.7348 94.8V33.216C92.7348 32.416 93.1348 32.016 93.9348 32.016H124.415C125.151 32.016 125.791 32.272 126.335 32.784L135.935 42.384C136.447 42.928 136.703 43.568 136.703 44.304V94.8C136.703 95.6 136.303 96 135.503 96H117.935C117.135 96 116.735 95.6 116.735 94.8V51.216H112.703V94.8C112.703 95.6 112.303 96 111.503 96H93.9348ZM141.935 96C141.135 96 140.735 95.6 140.735 94.8V33.216C140.735 32.416 141.135 32.016 141.935 32.016H175.343C176.143 32.016 176.543 32.416 176.543 33.216V50.016C176.543 50.816 176.143 51.216 175.343 51.216H160.703V55.2H175.343C176.143 55.2 176.543 55.6 176.543 56.4V71.616C176.543 72.416 176.143 72.816 175.343 72.816H160.703V76.8H175.343C176.143 76.8 176.543 77.2 176.543 78V94.8C176.543 95.6 176.143 96 175.343 96H141.935ZM181.779 96C180.979 96 180.579 95.6 180.579 94.8V44.304C180.579 43.568 180.835 42.928 181.347 42.384L190.947 32.784C191.491 32.272 192.131 32.016 192.867 32.016H203.427C204.195 32.016 204.835 32.272 205.347 32.784L213.459 40.896H215.667L223.779 32.784C224.291 32.272 224.931 32.016 225.699 32.016H236.259C236.995 32.016 237.635 32.272 238.179 32.784L247.779 42.384C248.291 42.928 248.547 43.568 248.547 44.304V94.8C248.547 95.6 248.147 96 247.347 96H229.779C228.979 96 228.579 95.6 228.579 94.8V55.2H224.547V94.8C224.547 95.6 224.147 96 223.347 96H205.779C204.979 96 204.579 95.6 204.579 94.8V55.2H200.547V94.8C200.547 95.6 200.147 96 199.347 96H181.779ZM253.779 96C252.979 96 252.579 95.6 252.579 94.8V50.304C252.579 49.792 252.739 49.312 253.059 48.864L264.387 32.736C264.739 32.256 265.251 32.016 265.923 32.016H283.107C283.811 32.016 284.323 32.256 284.643 32.736L296.067 48.864C296.387 49.312 296.547 49.792 296.547 50.304V94.8C296.547 95.6 296.147 96 295.347 96H277.779C276.979 96 276.579 95.6 276.579 94.8V76.8H272.547V94.8C272.547 95.6 272.147 96 271.347 96H253.779ZM274.562 60.144C275.939 60.144 277.059 59.712 277.923 58.848C278.787 57.984 279.219 56.88 279.219 55.536C279.219 54.16 278.787 53.04 277.923 52.176C277.059 51.312 275.939 50.88 274.562 50.88C273.187 50.88 272.067 51.312 271.203 52.176C270.339 53.04 269.907 54.16 269.907 55.536C269.907 56.88 270.339 57.984 271.203 58.848C272.067 59.712 273.187 60.144 274.562 60.144Z" fill="white"/>
</svg>
