<?xml version="1.0" encoding="UTF-8" standalone="no"?>
<svg
   viewBox="0 0 526.71995 55.369999"
   fill="#000000"
   data-color-origin="#000000"
   data-color-type="fill"
   version="1.1"
   id="svg1"
   width="526.71997"
   height="55.369999"
   xmlns:inkscape="http://www.inkscape.org/namespaces/inkscape"
   xmlns:sodipodi="http://sodipodi.sourceforge.net/DTD/sodipodi-0.dtd"
   xmlns="http://www.w3.org/2000/svg"
   xmlns:svg="http://www.w3.org/2000/svg">
  <sodipodi:namedview
     id="namedview1"
     pagecolor="#ffffff"
     bordercolor="#000000"
     borderopacity="0.25"
     inkscape:showpageshadow="2"
     inkscape:pageopacity="0.0"
     inkscape:pagecheckerboard="0"
     inkscape:deskcolor="#d1d1d1" />
  <defs
     id="defs1" />
  <path
     fill="#000000"
     d="m 37.65,40.32 5.34,8.79 q -3.51,3.03 -7.87,4.64 -4.36,1.62 -9.04,1.62 v 0 q -3.58,0 -6.9,-0.93 Q 15.85,53.51 12.95,51.8 10.05,50.1 7.66,47.71 5.27,45.32 3.57,42.41 1.86,39.51 0.93,36.19 0,32.87 0,29.28 v 0 q 0,-3.58 0.93,-6.92 0.93,-3.34 2.64,-6.24 1.7,-2.9 4.09,-5.29 2.39,-2.39 5.29,-4.1 2.9,-1.7 6.23,-2.64 3.32,-0.93 6.9,-0.93 v 0 q 4.68,0 9.04,1.6 4.36,1.6 7.87,4.66 v 0 l -5.34,8.79 q -2.21,-2.39 -5.24,-3.67 -3.02,-1.29 -6.33,-1.29 v 0 q -3.34,0 -6.25,1.27 -2.92,1.26 -5.1,3.43 -2.18,2.16 -3.45,5.09 -1.26,2.94 -1.26,6.24 v 0 q 0,3.31 1.26,6.21 1.27,2.9 3.45,5.08 2.18,2.18 5.1,3.44 2.91,1.27 6.25,1.27 v 0 q 3.31,0 6.33,-1.28 3.03,-1.29 5.24,-3.68 z M 59.85,6.4 v 0 q 0,1.33 -0.51,2.49 -0.51,1.16 -1.39,2.02 -0.88,0.87 -2.05,1.38 -1.18,0.51 -2.52,0.51 v 0 q -1.33,0 -2.51,-0.51 Q 49.69,11.78 48.83,10.91 47.97,10.05 47.46,8.89 46.95,7.73 46.95,6.4 v 0 q 0,-1.3 0.51,-2.48 Q 47.97,2.74 48.83,1.88 49.69,1.02 50.87,0.51 52.05,0 53.38,0 v 0 q 1.34,0 2.52,0.51 1.17,0.51 2.05,1.37 0.88,0.86 1.39,2.04 0.51,1.18 0.51,2.48 z M 58.2,16.63 V 54.28 H 48.53 V 16.63 Z m 17.63,16.13 v 21.52 h -9.6 V 16.63 h 2.32 l 3.17,3.65 q 2.32,-2.11 5.25,-3.25 2.94,-1.14 6.14,-1.14 v 0 q 3.44,0 6.5,1.32 3.06,1.32 5.34,3.62 2.29,2.3 3.61,5.38 1.32,3.07 1.32,6.55 v 0 21.52 h -9.6 V 32.76 q 0,-1.47 -0.56,-2.79 -0.57,-1.32 -1.55,-2.3 -0.99,-0.99 -2.29,-1.55 -1.3,-0.56 -2.77,-0.56 v 0 q -1.52,0 -2.85,0.56 -1.34,0.56 -2.32,1.55 -0.99,0.98 -1.55,2.3 -0.56,1.32 -0.56,2.79 z m 64.56,-9.38 -18,21.69 q 0.56,0.18 1.13,0.23 0.56,0.05 1.12,0.05 v 0 q 1.41,0 2.71,-0.39 1.3,-0.38 2.44,-1.1 1.15,-0.72 2.04,-1.76 0.9,-1.04 1.46,-2.3 v 0 l 7.03,7.06 q -1.33,1.9 -3.07,3.41 -1.74,1.51 -3.77,2.57 -2.02,1.05 -4.25,1.6 -2.23,0.54 -4.59,0.54 v 0 q -3.97,0 -7.47,-1.47 -3.5,-1.48 -6.12,-4.12 -2.61,-2.63 -4.13,-6.27 -1.51,-3.64 -1.51,-8 v 0 q 0,-4.46 1.51,-8.16 1.52,-3.69 4.13,-6.29 2.62,-2.6 6.12,-4.04 3.5,-1.44 7.47,-1.44 v 0 q 2.36,0 4.61,0.56 2.25,0.56 4.27,1.62 2.02,1.05 3.78,2.58 1.76,1.53 3.09,3.43 z m -24.26,16.73 11.18,-14.83 q -0.66,-0.25 -1.31,-0.32 -0.65,-0.07 -1.36,-0.07 v 0 q -1.97,0 -3.71,0.72 -1.74,0.72 -3.02,2.06 -1.28,1.33 -2.02,3.21 -0.74,1.88 -0.74,4.24 v 0 q 0,0.53 0.05,1.2 0.06,0.66 0.18,1.35 0.12,0.68 0.3,1.32 0.17,0.63 0.45,1.12 z m 77.68,-9.74 v 23.91 h -9.56 V 30.37 q 0,-0.98 -0.37,-1.86 -0.37,-0.88 -1.04,-1.55 -0.67,-0.66 -1.54,-1.03 -0.88,-0.37 -1.87,-0.37 v 0 q -0.98,0 -1.84,0.37 -0.86,0.37 -1.51,1.03 -0.66,0.67 -1.02,1.55 -0.37,0.88 -0.37,1.86 v 0 23.91 h -9.6 V 30.37 q 0,-0.98 -0.37,-1.86 -0.37,-0.88 -1.04,-1.55 -0.67,-0.66 -1.54,-1.03 -0.88,-0.37 -1.87,-0.37 v 0 q -0.98,0 -1.84,0.37 -0.86,0.37 -1.51,1.03 -0.66,0.67 -1.02,1.55 -0.37,0.88 -0.37,1.86 v 0 23.91 h -9.6 V 16.63 h 2.32 l 2.6,2.88 q 2,-1.69 4.41,-2.62 2.41,-0.93 5.01,-0.93 v 0 q 2.64,0 5.15,0.98 2.52,0.99 4.42,3.41 v 0 q 0.87,-1.19 2,-2.03 1.12,-0.85 2.37,-1.38 1.25,-0.52 2.59,-0.75 1.33,-0.23 2.63,-0.23 v 0 q 2.99,0 5.61,1.12 2.62,1.13 4.57,3.08 1.95,1.95 3.08,4.59 1.12,2.64 1.12,5.62 z M 237.98,16.7 v 37.58 h -2.32 l -3.72,-5.17 q -1.37,1.23 -2.9,2.3 -1.53,1.08 -3.22,1.87 -1.69,0.79 -3.46,1.25 -1.78,0.45 -3.61,0.45 v 0 q -3.97,0 -7.47,-1.33 -3.49,-1.34 -6.11,-3.89 -2.62,-2.55 -4.13,-6.24 -1.52,-3.69 -1.52,-8.4 v 0 q 0,-4.39 1.52,-8.07 1.51,-3.67 4.13,-6.31 2.62,-2.64 6.11,-4.09 3.5,-1.46 7.47,-1.46 v 0 q 1.83,0 3.63,0.45 1.79,0.46 3.48,1.27 1.68,0.81 3.21,1.9 1.53,1.09 2.87,2.35 v 0 l 3.72,-4.46 z m -9.66,18.42 v 0 q 0,-1.97 -0.76,-3.81 -0.75,-1.85 -2.06,-3.27 -1.3,-1.43 -3.04,-2.29 -1.74,-0.86 -3.71,-0.86 v 0 q -1.96,0 -3.7,0.67 -1.74,0.67 -3.03,1.97 -1.28,1.3 -2.02,3.21 -0.74,1.92 -0.74,4.38 v 0 q 0,2.46 0.74,4.38 0.74,1.91 2.02,3.21 1.29,1.3 3.03,1.97 1.74,0.67 3.7,0.67 v 0 q 1.97,0 3.71,-0.86 1.74,-0.86 3.04,-2.29 1.31,-1.42 2.06,-3.27 0.76,-1.84 0.76,-3.81 z m 36.63,-16.14 v 0 q 0,-3.13 1.19,-5.87 1.2,-2.74 3.26,-4.8 2.05,-2.05 4.79,-3.25 2.75,-1.19 5.88,-1.19 v 0 h 23.13 v 10.09 h -23.13 q -1.06,0 -1.97,0.38 -0.92,0.39 -1.6,1.07 -0.69,0.69 -1.08,1.6 -0.38,0.92 -0.38,1.97 v 0 q 0,1.06 0.38,1.99 0.39,0.93 1.08,1.62 0.68,0.68 1.6,1.07 0.91,0.39 1.97,0.39 v 0 h 10.09 q 3.12,0 5.88,1.17 2.76,1.18 4.82,3.24 2.06,2.05 3.23,4.81 1.18,2.76 1.18,5.89 v 0 q 0,3.13 -1.18,5.87 -1.17,2.75 -3.23,4.8 -2.06,2.06 -4.82,3.25 -2.76,1.2 -5.88,1.2 v 0 h -22.4 V 44.19 h 22.4 q 1.05,0 1.96,-0.39 0.92,-0.38 1.6,-1.07 0.69,-0.68 1.08,-1.6 0.38,-0.91 0.38,-1.97 v 0 q 0,-1.05 -0.38,-1.97 -0.39,-0.91 -1.08,-1.6 -0.68,-0.68 -1.6,-1.07 -0.91,-0.38 -1.96,-0.38 v 0 h -10.09 q -3.13,0 -5.88,-1.2 -2.74,-1.19 -4.79,-3.25 -2.06,-2.06 -3.26,-4.82 -1.19,-2.76 -1.19,-5.89 z m 77.11,35.3 -3.16,-4.39 q -1.16,1.05 -2.48,1.98 -1.32,0.93 -2.76,1.62 -1.44,0.68 -2.97,1.09 -1.53,0.4 -3.11,0.4 v 0 q -3.48,0 -6.54,-1.23 -3.06,-1.23 -5.36,-3.5 -2.3,-2.26 -3.62,-5.51 -1.32,-3.26 -1.32,-7.3 v 0 -20.81 h 9.56 v 20.81 q 0,1.9 0.58,3.39 0.58,1.5 1.57,2.52 0.98,1.02 2.3,1.54 1.32,0.53 2.83,0.53 v 0 q 1.48,0 2.79,-0.68 1.32,-0.69 2.31,-1.82 0.98,-1.12 1.54,-2.54 0.57,-1.43 0.57,-2.94 v 0 -20.81 h 9.59 V 54.28 Z M 399.95,16.7 v 23.97 q 0,2.96 -1.13,5.58 -1.12,2.62 -3.07,4.55 -1.96,1.93 -4.57,3.06 -2.62,1.12 -5.61,1.12 v 0 q -2.67,0 -5.13,-0.93 -2.47,-0.93 -4.47,-2.72 v 0 q -1.97,1.79 -4.41,2.72 -2.45,0.93 -5.15,0.93 v 0 q -2.99,0 -5.59,-1.12 -2.6,-1.13 -4.55,-3.06 -1.96,-1.93 -3.08,-4.55 -1.13,-2.62 -1.13,-5.58 v 0 -23.97 h 9.6 v 23.97 q 0,0.99 0.37,1.85 0.37,0.86 1.02,1.51 0.65,0.65 1.51,1.02 0.86,0.37 1.85,0.37 v 0 q 0.98,0 1.86,-0.37 0.88,-0.37 1.55,-1.02 0.67,-0.65 1.04,-1.51 0.36,-0.86 0.36,-1.85 v 0 -23.97 h 9.57 v 23.97 q 0,0.99 0.38,1.85 0.39,0.86 1.04,1.51 0.65,0.65 1.51,1.02 0.86,0.37 1.85,0.37 v 0 q 0.98,0 1.86,-0.37 0.88,-0.37 1.53,-1.02 0.65,-0.65 1.04,-1.51 0.38,-0.86 0.38,-1.85 v 0 -23.97 z m 44.13,0 v 37.58 h -2.32 l -3.72,-5.17 q -1.37,1.23 -2.9,2.3 -1.53,1.08 -3.22,1.87 -1.69,0.79 -3.46,1.25 -1.78,0.45 -3.61,0.45 v 0 q -3.97,0 -7.47,-1.33 -3.49,-1.34 -6.11,-3.89 -2.62,-2.55 -4.13,-6.24 -1.52,-3.69 -1.52,-8.4 v 0 q 0,-4.39 1.52,-8.07 1.51,-3.67 4.13,-6.31 2.62,-2.64 6.11,-4.09 3.5,-1.46 7.47,-1.46 v 0 q 1.83,0 3.63,0.45 1.79,0.46 3.48,1.27 1.68,0.81 3.21,1.9 1.53,1.09 2.87,2.35 v 0 l 3.72,-4.46 z m -9.66,18.42 v 0 q 0,-1.97 -0.76,-3.81 -0.75,-1.85 -2.06,-3.27 -1.3,-1.43 -3.04,-2.29 -1.74,-0.86 -3.71,-0.86 v 0 q -1.96,0 -3.7,0.67 -1.74,0.67 -3.03,1.97 -1.28,1.3 -2.02,3.21 -0.74,1.92 -0.74,4.38 v 0 q 0,2.46 0.74,4.38 0.74,1.91 2.02,3.21 1.29,1.3 3.03,1.97 1.74,0.67 3.7,0.67 v 0 q 1.97,0 3.71,-0.86 1.74,-0.86 3.04,-2.29 1.31,-1.42 2.06,-3.27 0.76,-1.84 0.76,-3.81 z m 14.74,-5.31 5.77,-3.02 V 1.65 h 9.67 v 19.93 l 6.19,-3.3 v 9.56 l -6.19,3.34 v 23.1 h -9.67 V 36.35 l -5.77,3.02 z m 36.37,19.65 v 4.82 h -9.67 V 1.65 h 9.67 V 34.84 L 499.84,16.7 h 11.04 l -12.48,15.68 12.48,21.9 H 499.84 L 492.21,40.6 Z M 526.72,6.4 v 0 q 0,1.33 -0.51,2.49 -0.51,1.16 -1.39,2.02 -0.88,0.87 -2.06,1.38 -1.18,0.51 -2.51,0.51 v 0 q -1.34,0 -2.51,-0.51 -1.18,-0.51 -2.04,-1.38 -0.87,-0.86 -1.38,-2.02 -0.5,-1.16 -0.5,-2.49 v 0 q 0,-1.3 0.5,-2.48 0.51,-1.18 1.38,-2.04 0.86,-0.86 2.04,-1.37 Q 518.91,0 520.25,0 v 0 q 1.33,0 2.51,0.51 1.18,0.51 2.06,1.37 0.88,0.86 1.39,2.04 0.51,1.18 0.51,2.48 z m -1.65,10.23 V 54.28 H 515.4 V 16.63 Z"
     class=" bl-fill-0"
     data-color-origin="#000000"
     data-color-type="fill"
     id="path1" />
</svg>
